name rise42.5664peak47.7979fall81.9185.mot
datacolumns 19
datarows 12
range 16.38993200000000 16.40827000000000
endheader
time	ground_force1_vx	ground_force1_vy	ground_force1_vz	ground_force1_px	ground_force1_py	ground_force1_pz	ground_force2_vx	ground_force2_vy	ground_force2_vz	ground_force2_px	ground_force2_py	ground_force2_pz	ground_torque1_x	ground_torque1_y	ground_torque1_z	ground_torque2_x	ground_torque2_y	ground_torque2_z	
16.38993200000000	3.07283500000000	713.77910199999997	41.43046000000000	0.18249400000000	0.00000000000000	0.11275800000000	0.00000000000000	0.00000000000000	0.00000000000000	0.00000000000000	0.00000000000000	0.00000000000000	0.00000000000000	14.73112400000000	0.00000000000000	0.00000000000000	0.00000000000000	0.00000000000000	
16.39160800000000	2.50101100000000	714.78764899999999	41.45257800000000	0.18141400000000	0.00000000000000	0.11275300000000	0.00000000000000	0.00000000000000	0.00000000000000	0.00000000000000	0.00000000000000	0.00000000000000	0.00000000000000	14.80782200000000	0.00000000000000	0.00000000000000	0.00000000000000	0.00000000000000	
16.39327200000000	1.92016600000000	715.80260899999996	41.47404600000000	0.18032400000000	0.00000000000000	0.11274700000000	0.00000000000000	0.00000000000000	0.00000000000000	0.00000000000000	0.00000000000000	0.00000000000000	0.00000000000000	14.88685900000000	0.00000000000000	0.00000000000000	0.00000000000000	0.00000000000000	
16.39494900000000	1.33053500000000	716.82417299999997	41.49488300000000	0.17922500000000	0.00000000000000	0.11274100000000	0.00000000000000	0.00000000000000	0.00000000000000	0.00000000000000	0.00000000000000	0.00000000000000	0.00000000000000	14.96824100000000	0.00000000000000	0.00000000000000	0.00000000000000	0.00000000000000	
16.39660600000000	0.73237600000000	717.85263799999996	41.51512500000000	0.17812000000000	0.00000000000000	0.11273400000000	0.00000000000000	0.00000000000000	0.00000000000000	0.00000000000000	0.00000000000000	0.00000000000000	0.00000000000000	15.05197200000000	0.00000000000000	0.00000000000000	0.00000000000000	0.00000000000000	
16.39826500000000	0.12596800000000	718.88840100000004	41.53482100000000	0.17700800000000	0.00000000000000	0.11272700000000	0.00000000000000	0.00000000000000	0.00000000000000	0.00000000000000	0.00000000000000	0.00000000000000	0.00000000000000	15.13805500000000	0.00000000000000	0.00000000000000	0.00000000000000	0.00000000000000	
16.39994400000000	-0.48839000000000	719.93195600000001	41.55403700000000	0.17589200000000	0.00000000000000	0.11271800000000	0.00000000000000	0.00000000000000	0.00000000000000	0.00000000000000	0.00000000000000	0.00000000000000	0.00000000000000	15.22649000000000	0.00000000000000	0.00000000000000	0.00000000000000	0.00000000000000	
16.40160100000000	-1.11037800000000	720.98388499999999	41.57285200000000	0.17477200000000	0.00000000000000	0.11270800000000	0.00000000000000	0.00000000000000	0.00000000000000	0.00000000000000	0.00000000000000	0.00000000000000	0.00000000000000	15.31727400000000	0.00000000000000	0.00000000000000	0.00000000000000	0.00000000000000	
16.40326700000000	-1.73965700000000	722.04485399999999	41.59135800000000	0.17365000000000	0.00000000000000	0.11269800000000	0.00000000000000	0.00000000000000	0.00000000000000	0.00000000000000	0.00000000000000	0.00000000000000	0.00000000000000	15.41040100000000	0.00000000000000	0.00000000000000	0.00000000000000	0.00000000000000	
16.40494900000000	-2.37587000000000	723.11560799999995	41.60966200000000	0.17252600000000	0.00000000000000	0.11268700000000	0.00000000000000	0.00000000000000	0.00000000000000	0.00000000000000	0.00000000000000	0.00000000000000	0.00000000000000	15.50586000000000	0.00000000000000	0.00000000000000	0.00000000000000	0.00000000000000	
16.40659900000000	-3.01864600000000	724.19695800000000	41.62788500000000	0.17140300000000	0.00000000000000	0.11267400000000	0.00000000000000	0.00000000000000	0.00000000000000	0.00000000000000	0.00000000000000	0.00000000000000	0.00000000000000	15.60363600000000	0.00000000000000	0.00000000000000	0.00000000000000	0.00000000000000	
16.40827000000000	-3.66759400000000	725.28978199999995	41.64615900000000	0.17028200000000	0.00000000000000	0.11266000000000	0.00000000000000	0.00000000000000	0.00000000000000	0.00000000000000	0.00000000000000	0.00000000000000	0.00000000000000	15.70370900000000	0.00000000000000	0.00000000000000	0.00000000000000	0.00000000000000	
